<?xml version="1.0" encoding="utf-8"?>
<!-- Generator: Adobe Illustrator 16.0.0, SVG Export Plug-In . SVG Version: 6.00 Build 0)  -->
<!DOCTYPE svg PUBLIC "-//W3C//DTD SVG 1.1//EN" "http://www.w3.org/Graphics/SVG/1.1/DTD/svg11.dtd">
<svg version="1.1" id="Calque_1" xmlns="http://www.w3.org/2000/svg" xmlns:xlink="http://www.w3.org/1999/xlink" x="0px" y="0px"
	 width="40px" height="40px" viewBox="0 0 40 40" enable-background="new 0 0 40 40" xml:space="preserve">
<circle fill="#FFFFFF" cx="20.469" cy="20.469" r="15.531"/>
<path d="M25.648,18.613l-2.147,0.568c0.168-1.14-0.454-1.165-0.454-1.165h-0.439c0.129-0.104,0.933-0.842,0.933-1.759
	c0-2.758-4.103-2.459-4.103-0.053c-0.052-2.73-4.167-2.394-4.09,0.053c0,1.022,0.803,1.618,1.009,1.747H15.98
	c0,0-0.634-0.064-0.634,0.609v4.465c0,0.518,0.518,0.529,0.518,0.529h2.498l-2.278,4.361l0.66,0.401l2.369-4.519l0.013,5.164h0.764
	v-5.164l2.355,4.545l0.673-0.362l-2.277-4.427c0,0,2.135,0.013,2.435,0.013c0.312,0,0.411-0.429,0.411-0.429l0.016-0.724
	c0,0,1.838,0.452,2.148,0.529c0.478-0.024,0.518-0.465,0.518-0.465s0-2.912,0-3.392C26.05,18.547,25.648,18.613,25.648,18.613z
	 M18.53,18.004c0.155-0.129,0.906-0.854,0.906-1.747c0,1.075,0.88,1.668,1.022,1.759L18.53,18.004z"/>
</svg>
